G75*
%MOIN*%
%OFA0B0*%
%FSLAX24Y24*%
%IPPOS*%
%LPD*%
%AMOC8*
5,1,8,0,0,1.08239X$1,22.5*
%
%ADD10C,0.0000*%
%ADD11C,0.0020*%
%ADD12C,0.0080*%
%ADD13C,0.0040*%
%ADD14C,0.0030*%
%ADD15C,0.0060*%
D10*
X000680Y000680D02*
X000680Y010026D01*
X008000Y010026D01*
X008000Y000680D01*
X000680Y000680D01*
D11*
X001113Y001940D02*
X001187Y002013D01*
X001187Y002160D01*
X001261Y002123D02*
X001261Y001977D01*
X001298Y001940D01*
X001371Y001940D01*
X001408Y001977D01*
X001482Y001977D02*
X001482Y002123D01*
X001519Y002160D01*
X001592Y002160D01*
X001629Y002123D01*
X001629Y001977D02*
X001592Y001940D01*
X001519Y001940D01*
X001482Y001977D01*
X001408Y002123D02*
X001371Y002160D01*
X001298Y002160D01*
X001261Y002123D01*
X001113Y001940D02*
X001040Y002013D01*
X001040Y002160D01*
X002140Y002087D02*
X002213Y002160D01*
X002213Y001940D01*
X002140Y001940D02*
X002287Y001940D01*
X002361Y002050D02*
X002508Y002050D01*
X002471Y001940D02*
X002471Y002160D01*
X002361Y002050D01*
X003140Y002087D02*
X003213Y002160D01*
X003213Y001940D01*
X003140Y001940D02*
X003287Y001940D01*
X003361Y001940D02*
X003508Y002087D01*
X003508Y002123D01*
X003471Y002160D01*
X003398Y002160D01*
X003361Y002123D01*
X003361Y001940D02*
X003508Y001940D01*
X004140Y001940D02*
X004287Y001940D01*
X004213Y001940D02*
X004213Y002160D01*
X004140Y002087D01*
X004361Y002123D02*
X004398Y002160D01*
X004471Y002160D01*
X004508Y002123D01*
X004508Y002087D01*
X004471Y002050D01*
X004508Y002013D01*
X004508Y001977D01*
X004471Y001940D01*
X004398Y001940D01*
X004361Y001977D01*
X004434Y002050D02*
X004471Y002050D01*
X005140Y002087D02*
X005213Y002160D01*
X005213Y001940D01*
X005140Y001940D02*
X005287Y001940D01*
X005361Y001977D02*
X005398Y001940D01*
X005471Y001940D01*
X005508Y001977D01*
X005508Y002050D01*
X005471Y002087D01*
X005434Y002087D01*
X005361Y002050D01*
X005361Y002160D01*
X005508Y002160D01*
X006290Y002123D02*
X006327Y002160D01*
X006400Y002160D01*
X006437Y002123D01*
X006437Y002087D01*
X006290Y001940D01*
X006437Y001940D01*
X007240Y001977D02*
X007387Y002123D01*
X007387Y001977D01*
X007350Y001940D01*
X007277Y001940D01*
X007240Y001977D01*
X007240Y002123D01*
X007277Y002160D01*
X007350Y002160D01*
X007387Y002123D01*
X007408Y008490D02*
X007408Y008710D01*
X007482Y008710D02*
X007592Y008710D01*
X007629Y008673D01*
X007629Y008527D01*
X007592Y008490D01*
X007482Y008490D01*
X007482Y008710D01*
X007261Y008710D02*
X007261Y008490D01*
X007187Y008527D02*
X007187Y008600D01*
X007113Y008600D01*
X007040Y008527D02*
X007077Y008490D01*
X007150Y008490D01*
X007187Y008527D01*
X007187Y008673D02*
X007150Y008710D01*
X007077Y008710D01*
X007040Y008673D01*
X007040Y008527D01*
X007261Y008710D02*
X007408Y008490D01*
X006508Y008527D02*
X006471Y008490D01*
X006398Y008490D01*
X006361Y008527D01*
X006361Y008673D01*
X006398Y008710D01*
X006471Y008710D01*
X006508Y008673D01*
X006287Y008710D02*
X006287Y008490D01*
X006140Y008710D01*
X006140Y008490D01*
X005508Y008490D02*
X005361Y008710D01*
X005287Y008710D02*
X005140Y008710D01*
X005213Y008710D02*
X005213Y008490D01*
X005361Y008490D02*
X005508Y008710D01*
X004558Y008710D02*
X004411Y008490D01*
X004337Y008490D02*
X004263Y008563D01*
X004300Y008563D02*
X004190Y008563D01*
X004190Y008490D02*
X004190Y008710D01*
X004300Y008710D01*
X004337Y008673D01*
X004337Y008600D01*
X004300Y008563D01*
X004411Y008710D02*
X004558Y008490D01*
X003931Y008720D02*
X003811Y008720D01*
X003871Y008720D02*
X003871Y008540D01*
X003747Y008570D02*
X003717Y008540D01*
X003657Y008540D01*
X003627Y008570D01*
X003657Y008630D02*
X003717Y008630D01*
X003747Y008600D01*
X003747Y008570D01*
X003657Y008630D02*
X003627Y008660D01*
X003627Y008690D01*
X003657Y008720D01*
X003717Y008720D01*
X003747Y008690D01*
X003563Y008690D02*
X003563Y008630D01*
X003533Y008600D01*
X003442Y008600D01*
X003442Y008540D02*
X003442Y008720D01*
X003533Y008720D01*
X003563Y008690D01*
X003503Y008600D02*
X003563Y008540D01*
X003378Y008720D02*
X003258Y008540D01*
X003194Y008570D02*
X003194Y008600D01*
X003164Y008630D01*
X003074Y008630D01*
X003074Y008570D01*
X003104Y008540D01*
X003164Y008540D01*
X003194Y008570D01*
X003134Y008690D02*
X003074Y008630D01*
X003134Y008690D02*
X003194Y008720D01*
X003010Y008540D02*
X002890Y008540D01*
X002950Y008540D02*
X002950Y008720D01*
X002890Y008660D01*
X002700Y008673D02*
X002700Y008527D01*
X002663Y008490D01*
X002553Y008490D01*
X002553Y008710D01*
X002663Y008710D01*
X002700Y008673D01*
X002479Y008673D02*
X002479Y008600D01*
X002442Y008563D01*
X002332Y008563D01*
X002332Y008490D02*
X002332Y008710D01*
X002442Y008710D01*
X002479Y008673D01*
X002258Y008710D02*
X002258Y008490D01*
X002258Y008600D02*
X002111Y008600D01*
X002037Y008527D02*
X002000Y008490D01*
X001927Y008490D01*
X001890Y008527D01*
X001890Y008673D01*
X001927Y008710D01*
X002000Y008710D01*
X002037Y008673D01*
X002111Y008710D02*
X002111Y008490D01*
X001629Y008710D02*
X001482Y008710D01*
X001555Y008710D02*
X001555Y008490D01*
X001408Y008490D02*
X001408Y008710D01*
X001261Y008710D02*
X001408Y008490D01*
X001261Y008490D02*
X001261Y008710D01*
X001187Y008637D02*
X001187Y008490D01*
X001187Y008600D02*
X001040Y008600D01*
X001040Y008637D02*
X001113Y008710D01*
X001187Y008637D01*
X001040Y008637D02*
X001040Y008490D01*
D12*
X001080Y008830D02*
X000830Y009080D01*
X000830Y009580D01*
X001080Y009830D01*
X001580Y009830D01*
X001830Y009580D01*
X002080Y009830D01*
X002580Y009830D01*
X002830Y009580D01*
X003080Y009830D01*
X003580Y009830D01*
X003830Y009580D01*
X004080Y009830D01*
X004580Y009830D01*
X004830Y009580D01*
X005080Y009830D01*
X005580Y009830D01*
X005830Y009580D01*
X006080Y009830D01*
X006580Y009830D01*
X006830Y009580D01*
X007080Y009830D01*
X007580Y009830D01*
X007830Y009580D01*
X007830Y009080D01*
X007580Y008830D01*
X007080Y008830D01*
X006830Y009080D01*
X006580Y008830D01*
X006080Y008830D01*
X005830Y009080D01*
X005580Y008830D01*
X005080Y008830D01*
X004830Y009080D01*
X004580Y008830D01*
X004080Y008830D01*
X003830Y009080D01*
X003580Y008830D01*
X003080Y008830D01*
X002830Y009080D01*
X002580Y008830D01*
X002080Y008830D01*
X001830Y009080D01*
X001580Y008830D01*
X001080Y008830D01*
X000905Y007732D02*
X002086Y007732D01*
X001830Y007330D02*
X001330Y007330D01*
X001330Y006845D01*
X001330Y006451D02*
X001330Y005966D01*
X001330Y005573D02*
X001330Y005087D01*
X001330Y004694D02*
X001330Y004209D01*
X001330Y003815D02*
X001330Y003330D01*
X001830Y003330D01*
X001830Y003815D01*
X001830Y004209D02*
X001830Y004694D01*
X001830Y005087D02*
X001830Y005573D01*
X001830Y005966D02*
X001830Y006451D01*
X001830Y006845D02*
X001830Y007330D01*
X000905Y007732D02*
X000905Y002928D01*
X002086Y002928D01*
X002080Y001830D02*
X002580Y001830D01*
X002830Y001580D01*
X003080Y001830D01*
X003580Y001830D01*
X003830Y001580D01*
X004080Y001830D01*
X004580Y001830D01*
X004830Y001580D01*
X005080Y001830D01*
X005580Y001830D01*
X005830Y001580D01*
X006080Y001830D01*
X006580Y001830D01*
X006830Y001580D01*
X007080Y001830D01*
X007580Y001830D01*
X007830Y001580D01*
X007830Y001080D01*
X007580Y000830D01*
X007080Y000830D01*
X006830Y001080D01*
X006580Y000830D01*
X006080Y000830D01*
X005830Y001080D01*
X005580Y000830D01*
X005080Y000830D01*
X004830Y001080D01*
X004580Y000830D01*
X004080Y000830D01*
X003830Y001080D01*
X003580Y000830D01*
X003080Y000830D01*
X002830Y001080D01*
X002580Y000830D01*
X002080Y000830D01*
X001830Y001080D01*
X001580Y000830D01*
X001080Y000830D01*
X000830Y001080D01*
X000830Y001580D01*
X001080Y001830D01*
X001580Y001830D01*
X001830Y001580D01*
X002080Y001830D01*
X007598Y002928D02*
X007755Y002928D01*
X007755Y007732D01*
X007598Y007732D01*
D13*
X003360Y006893D02*
X003360Y006739D01*
X003283Y006662D01*
X003130Y006662D01*
X003130Y006893D01*
X003207Y006969D01*
X003283Y006969D01*
X003360Y006893D01*
X003130Y006662D02*
X002976Y006816D01*
X002900Y006969D01*
X002900Y006509D02*
X002976Y006355D01*
X003130Y006202D01*
X003130Y006432D01*
X003207Y006509D01*
X003283Y006509D01*
X003360Y006432D01*
X003360Y006279D01*
X003283Y006202D01*
X003130Y006202D01*
X003053Y006048D02*
X002976Y006048D01*
X002900Y005972D01*
X002900Y005818D01*
X002976Y005742D01*
X002976Y005588D02*
X002900Y005511D01*
X002900Y005358D01*
X002976Y005281D01*
X003053Y005281D01*
X003130Y005358D01*
X003130Y005511D01*
X003207Y005588D01*
X003283Y005588D01*
X003360Y005511D01*
X003360Y005358D01*
X003283Y005281D01*
X003207Y005281D01*
X003130Y005358D01*
X003130Y005511D02*
X003053Y005588D01*
X002976Y005588D01*
X002976Y005128D02*
X003130Y005128D01*
X003207Y005051D01*
X003207Y004821D01*
X003207Y004667D02*
X003283Y004667D01*
X003360Y004591D01*
X003360Y004437D01*
X003283Y004360D01*
X003360Y004207D02*
X003360Y003900D01*
X002900Y003900D01*
X002900Y004207D01*
X002976Y004360D02*
X002900Y004437D01*
X002900Y004591D01*
X002976Y004667D01*
X002900Y004821D02*
X002900Y005051D01*
X002976Y005128D01*
X002900Y004821D02*
X003360Y004821D01*
X003207Y004667D02*
X003130Y004591D01*
X003130Y004437D01*
X003053Y004360D01*
X002976Y004360D01*
X003130Y004053D02*
X003130Y003900D01*
X003360Y005742D02*
X003053Y006048D01*
X003360Y006048D02*
X003360Y005742D01*
D14*
X003795Y005592D02*
X004165Y005592D01*
X004165Y005715D02*
X004165Y005468D01*
X004103Y005347D02*
X004165Y005285D01*
X004165Y005162D01*
X004103Y005100D01*
X003856Y005347D01*
X004103Y005347D01*
X004103Y005100D02*
X003856Y005100D01*
X003795Y005162D01*
X003795Y005285D01*
X003856Y005347D01*
X003918Y005468D02*
X003795Y005592D01*
X004165Y005837D02*
X003795Y006083D01*
X003856Y006205D02*
X003795Y006267D01*
X003795Y006390D01*
X003856Y006452D01*
X004103Y006205D01*
X004165Y006267D01*
X004165Y006390D01*
X004103Y006452D01*
X003856Y006452D01*
X003856Y006573D02*
X003795Y006635D01*
X003795Y006758D01*
X003856Y006820D01*
X003918Y006820D01*
X003980Y006758D01*
X004042Y006820D01*
X004103Y006820D01*
X004165Y006758D01*
X004165Y006635D01*
X004103Y006573D01*
X003980Y006697D02*
X003980Y006758D01*
X004103Y006205D02*
X003856Y006205D01*
X003856Y004979D02*
X003980Y004979D01*
X004042Y004917D01*
X004042Y004732D01*
X004042Y004610D02*
X004103Y004610D01*
X004165Y004548D01*
X004165Y004425D01*
X004103Y004363D01*
X004165Y004242D02*
X004165Y003995D01*
X003795Y003995D01*
X003795Y004242D01*
X003856Y004363D02*
X003795Y004425D01*
X003795Y004548D01*
X003856Y004610D01*
X003795Y004732D02*
X003795Y004917D01*
X003856Y004979D01*
X003795Y004732D02*
X004165Y004732D01*
X004042Y004610D02*
X003980Y004548D01*
X003980Y004425D01*
X003918Y004363D01*
X003856Y004363D01*
X003980Y004118D02*
X003980Y003995D01*
D15*
X005530Y004080D02*
X005530Y003580D01*
X005780Y003330D01*
X007280Y003330D01*
X007530Y003580D01*
X007530Y004080D01*
X007280Y004330D01*
X007530Y004580D01*
X007530Y005080D01*
X007280Y005330D01*
X007530Y005580D01*
X007530Y006080D01*
X007280Y006330D01*
X007530Y006580D01*
X007530Y007080D01*
X007280Y007330D01*
X005780Y007330D01*
X005530Y007080D01*
X005530Y006580D01*
X005780Y006330D01*
X005530Y006080D01*
X005530Y005580D01*
X005780Y005330D01*
X005530Y005080D01*
X005530Y004580D01*
X005780Y004330D01*
X005530Y004080D01*
M02*
