%
M48
M72
T01C0.0236
T02C0.0400
%
T01
X2430Y5430
X4680Y5680
X5230Y6680
T02
X1330Y1330
X2330Y1330
X3330Y1330
X4330Y1330
X5330Y1330
X6330Y1330
X7330Y1330
X7030Y3830
X7030Y4830
X7030Y5830
X7030Y6830
X6030Y6830
X6030Y5830
X6030Y4830
X6030Y3830
X6330Y9330
X5330Y9330
X4330Y9330
X3330Y9330
X2330Y9330
X1330Y9330
X7330Y9330
M30
